<svg version="1.1" xmlns="http://www.w3.org/2000/svg" xmlns:xlink="http://www.w3.org/1999/xlink" width="981" height="497"><defs/><g><g><path fill="none" stroke="#000000" paint-order="fill stroke markers" d=" M 342 147 L 418 147" stroke-miterlimit="10" stroke-dasharray="3"/></g><g><path fill="none" stroke="#000000" paint-order="fill stroke markers" d=" M 407.83732514237585 151.209517756016 L 418 147 L 407.83732514237585 142.790482243984" stroke-miterlimit="10" stroke-dasharray=""/></g><g><rect fill="#ffffff" stroke="none" x="389" y="295" width="43.72265625" height="13" transform="matrix(1 0 0 1 -30 -169)"/></g><g><g><path fill="none" stroke="none"/><text fill="#000000" stroke="none" font-family="Arial" font-size="13px" font-style="normal" font-weight="normal" text-decoration="undefined" x="410.861328125" y="301.5" text-anchor="middle" dominant-baseline="central" transform="matrix(1 0 0 1 -30 -169)">+create</text></g></g><g><rect fill="#ffffff" stroke="none" x="359" y="463" width="240" height="81" transform="matrix(1 0 0 1 -30 -169)"/></g><g><path fill="none" stroke="#000000" paint-order="fill stroke markers" d=" M 329 294 L 569 294 L 569 375 L 329 375 L 329 294 Z Z" stroke-miterlimit="10" stroke-dasharray=""/></g><g><rect fill="#ffffff" stroke="none" x="359" y="448" width="96" height="15" transform="matrix(1 0 0 1 -30 -169)"/></g><g><path fill="none" stroke="#000000" paint-order="fill stroke markers" d=" M 329 279 L 425 279 L 425 294 L 329 294 L 329 279 Z Z" stroke-miterlimit="10" stroke-dasharray=""/></g><g><rect fill="#ffffff" stroke="none" x="359" y="462" width="240" height="82" transform="matrix(1 0 0 1 -30 -169)"/></g><g><path fill="none" stroke="#000000" paint-order="fill stroke markers" d=" M 329 293 L 569 293 L 569 375 L 329 375 L 329 293 Z Z" stroke-miterlimit="10" stroke-dasharray=""/></g><g><g><path fill="none" stroke="none"/><text fill="#000000" stroke="none" font-family="Arial" font-size="13px" font-style="normal" font-weight="bold" text-decoration="undefined" x="479.5" y="476.5" text-anchor="middle" dominant-baseline="central" transform="matrix(1 0 0 1 -30 -169)">&lt;mode&gt;tree_style</text></g></g><g><rect fill="#ffffff" stroke="none" x="383" y="488" width="192" height="45" transform="matrix(1 0 0 1 -30 -169)"/></g><g><path fill="none" stroke="#000000" paint-order="fill stroke markers" d=" M 353 319 L 545 319 L 545 364 L 353 364 L 353 319 Z Z" stroke-miterlimit="10" stroke-dasharray=""/></g><g><path fill="none" stroke="#000000" paint-order="fill stroke markers" d=" M 353 344 L 546 344" stroke-miterlimit="10" stroke-dasharray=""/></g><g><path fill="none" stroke="#000000" paint-order="fill stroke markers" d=" M 353 354 L 546 354" stroke-miterlimit="10" stroke-dasharray=""/></g><g><g><path fill="none" stroke="none"/><text fill="#000000" stroke="none" font-family="Arial" font-size="13px" font-style="normal" font-weight="bold" text-decoration="undefined" x="479.5" y="501.5" text-anchor="middle" dominant-baseline="central" transform="matrix(1 0 0 1 -30 -169)">TreeComponentFactory</text></g></g><g><rect fill="#ffffff" stroke="none" x="359" y="575" width="241.22607421875" height="81" transform="matrix(1 0 0 1 -30 -169)"/></g><g><path fill="none" stroke="#000000" paint-order="fill stroke markers" d=" M 329 406 L 570.22607421875 406 L 570.22607421875 487 L 329 487 L 329 406 Z Z" stroke-miterlimit="10" stroke-dasharray=""/></g><g><rect fill="#ffffff" stroke="none" x="359" y="560" width="96.49042968750001" height="15" transform="matrix(1 0 0 1 -30 -169)"/></g><g><path fill="none" stroke="#000000" paint-order="fill stroke markers" d=" M 329 391 L 425.4904296875 391 L 425.4904296875 406 L 329 406 L 329 391 Z Z" stroke-miterlimit="10" stroke-dasharray=""/></g><g><rect fill="#ffffff" stroke="none" x="359" y="574" width="241.22607421875" height="82" transform="matrix(1 0 0 1 -30 -169)"/></g><g><path fill="none" stroke="#000000" paint-order="fill stroke markers" d=" M 329 405 L 570.22607421875 405 L 570.22607421875 487 L 329 487 L 329 405 Z Z" stroke-miterlimit="10" stroke-dasharray=""/></g><g><g><path fill="none" stroke="none"/><text fill="#000000" stroke="none" font-family="Arial" font-size="13px" font-style="normal" font-weight="bold" text-decoration="undefined" x="480.113037109375" y="588.5" text-anchor="middle" dominant-baseline="central" transform="matrix(1 0 0 1 -30 -169)">&lt;mode&gt;rectangle_style类似tree_style</text></g></g><g><rect fill="#ffffff" stroke="none" x="383" y="600" width="191.3017578125" height="45" transform="matrix(1 0 0 1 -30 -169)"/></g><g><path fill="none" stroke="#000000" paint-order="fill stroke markers" d=" M 353 431 L 544.3017578125 431 L 544.3017578125 476 L 353 476 L 353 431 Z Z" stroke-miterlimit="10" stroke-dasharray=""/></g><g><path fill="none" stroke="#000000" paint-order="fill stroke markers" d=" M 353 456 L 545.3017578125 456" stroke-miterlimit="10" stroke-dasharray=""/></g><g><path fill="none" stroke="#000000" paint-order="fill stroke markers" d=" M 353 466 L 545.3017578125 466" stroke-miterlimit="10" stroke-dasharray=""/></g><g><g><path fill="none" stroke="none"/><text fill="#000000" stroke="none" font-family="Arial" font-size="13px" font-style="normal" font-weight="bold" text-decoration="undefined" x="479.15087890625" y="613.5" text-anchor="middle" dominant-baseline="central" transform="matrix(1 0 0 1 -30 -169)">RectangleComponentFactory</text></g></g><g><rect fill="#ffffff" stroke="none" x="216" y="575" width="104" height="81" transform="matrix(1 0 0 1 -30 -169)"/></g><g><path fill="none" stroke="#000000" paint-order="fill stroke markers" d=" M 186 406 L 290 406 L 290 487 L 186 487 L 186 406 Z Z" stroke-miterlimit="10" stroke-dasharray=""/></g><g><rect fill="#ffffff" stroke="none" x="216" y="560" width="41.60000000000002" height="15" transform="matrix(1 0 0 1 -30 -169)"/></g><g><path fill="none" stroke="#000000" paint-order="fill stroke markers" d=" M 186 391 L 227.60000000000002 391 L 227.60000000000002 406 L 186 406 L 186 391 Z Z" stroke-miterlimit="10" stroke-dasharray=""/></g><g><rect fill="#ffffff" stroke="none" x="216" y="574" width="104" height="82" transform="matrix(1 0 0 1 -30 -169)"/></g><g><path fill="none" stroke="#000000" paint-order="fill stroke markers" d=" M 186 405 L 290 405 L 290 487 L 186 487 L 186 405 Z Z" stroke-miterlimit="10" stroke-dasharray=""/></g><g><g><path fill="none" stroke="none"/><text fill="#000000" stroke="none" font-family="Arial" font-size="13px" font-style="normal" font-weight="bold" text-decoration="undefined" x="268.5" y="588.5" text-anchor="middle" dominant-baseline="central" transform="matrix(1 0 0 1 -30 -169)">&lt;icon&gt;</text></g></g><g><rect fill="#ffffff" stroke="none" x="232" y="608" width="72.14990234375" height="25" transform="matrix(1 0 0 1 -30 -169)"/></g><g><path fill="none" stroke="#000000" paint-order="fill stroke markers" d=" M 202 439 L 274.14990234375 439 L 274.14990234375 464 L 202 464 L 202 439 Z Z" stroke-miterlimit="10" stroke-dasharray=""/></g><g><g><path fill="none" stroke="none"/><text fill="#000000" stroke="none" font-family="Arial" font-size="13px" font-style="normal" font-weight="normal" text-decoration="undefined" x="237" y="613" text-anchor="start" dominant-baseline="text-before-edge" transform="matrix(1 0 0 1 -30 -169)">config.json</text></g></g><g><rect fill="#ffffff" stroke="none" x="216" y="239" width="384" height="145" transform="matrix(1 0 0 1 -30 -169)"/></g><g><path fill="none" stroke="#000000" paint-order="fill stroke markers" d=" M 186 70 L 570 70 L 570 215 L 186 215 L 186 70 Z Z" stroke-miterlimit="10" stroke-dasharray=""/></g><g><rect fill="#ffffff" stroke="none" x="216" y="224" width="153.60000000000002" height="15" transform="matrix(1 0 0 1 -30 -169)"/></g><g><path fill="none" stroke="#000000" paint-order="fill stroke markers" d=" M 186 55 L 339.6 55 L 339.6 70 L 186 70 L 186 55 Z Z" stroke-miterlimit="10" stroke-dasharray=""/></g><g><rect fill="#ffffff" stroke="none" x="216" y="238" width="384" height="146" transform="matrix(1 0 0 1 -30 -169)"/></g><g><path fill="none" stroke="#000000" paint-order="fill stroke markers" d=" M 186 69 L 570 69 L 570 215 L 186 215 L 186 69 Z Z" stroke-miterlimit="10" stroke-dasharray=""/></g><g><g><path fill="none" stroke="none"/><text fill="#000000" stroke="none" font-family="Arial" font-size="13px" font-style="normal" font-weight="bold" text-decoration="undefined" x="408.5" y="252.5" text-anchor="middle" dominant-baseline="central" transform="matrix(1 0 0 1 -30 -169)">&lt;mode&gt; style</text></g></g><g><rect fill="#ffffff" stroke="none" x="256" y="272" width="115.84716796875" height="88" transform="matrix(1 0 0 1 -30 -169)"/></g><g><path fill="none" stroke="#000000" paint-order="fill stroke markers" d=" M 226 103 L 341.84716796875 103 L 341.84716796875 191 L 226 191 L 226 103 Z Z" stroke-miterlimit="10" stroke-dasharray=""/></g><g><path fill="none" stroke="#000000" paint-order="fill stroke markers" d=" M 226 128 L 342.84716796875 128" stroke-miterlimit="10" stroke-dasharray=""/></g><g><path fill="none" stroke="#000000" paint-order="fill stroke markers" d=" M 226 138 L 342.84716796875 138" stroke-miterlimit="10" stroke-dasharray=""/></g><g><g><path fill="none" stroke="none"/><text fill="#000000" stroke="none" font-family="Arial" font-size="13px" font-style="normal" font-weight="bold" text-decoration="undefined" x="314.423583984375" y="285.5" text-anchor="middle" dominant-baseline="central" transform="matrix(1 0 0 1 -30 -169)">VisitorBuilder</text></g></g><g><g><path fill="none" stroke="none"/><text fill="#000000" stroke="none" font-family="Arial" font-size="13px" font-style="normal" font-weight="normal" text-decoration="undefined" x="261" y="318.5" text-anchor="start" dominant-baseline="central" transform="matrix(1 0 0 1 -30 -169)">+set_style()</text></g></g><g><g><path fill="none" stroke="none"/><text fill="#000000" stroke="none" font-family="Arial" font-size="13px" font-style="normal" font-weight="normal" text-decoration="undefined" x="261" y="333.5" text-anchor="start" dominant-baseline="central" transform="matrix(1 0 0 1 -30 -169)">+set_icon_family()</text></g></g><g><g><path fill="none" stroke="none"/><text fill="#000000" stroke="none" font-family="Arial" font-size="13px" font-style="normal" font-weight="normal" text-decoration="undefined" x="261" y="348.5" text-anchor="start" dominant-baseline="central" transform="matrix(1 0 0 1 -30 -169)">+build()</text></g></g><g><rect fill="#ffffff" stroke="none" x="448" y="272" width="117.30712890625" height="88" transform="matrix(1 0 0 1 -30 -169)"/></g><g><path fill="none" stroke="#000000" paint-order="fill stroke markers" d=" M 418 103 L 535.30712890625 103 L 535.30712890625 191 L 418 191 L 418 103 Z Z" stroke-miterlimit="10" stroke-dasharray=""/></g><g><path fill="none" stroke="#000000" paint-order="fill stroke markers" d=" M 418 128 L 536.30712890625 128" stroke-miterlimit="10" stroke-dasharray=""/></g><g><path fill="none" stroke="#000000" paint-order="fill stroke markers" d=" M 418 138 L 536.30712890625 138" stroke-miterlimit="10" stroke-dasharray=""/></g><g><g><path fill="none" stroke="none"/><text fill="#000000" stroke="none" font-family="Arial" font-size="13px" font-style="normal" font-weight="bold" text-decoration="undefined" x="507.153564453125" y="285.5" text-anchor="middle" dominant-baseline="central" transform="matrix(1 0 0 1 -30 -169)">RenderVisitor</text></g></g><g><g><path fill="none" stroke="none"/><text fill="#000000" stroke="none" font-family="Arial" font-size="13px" font-style="normal" font-weight="normal" text-decoration="undefined" x="453" y="318.5" text-anchor="start" dominant-baseline="central" transform="matrix(1 0 0 1 -30 -169)">+visit(node)</text></g></g><g><g><path fill="none" stroke="none"/><text fill="#000000" stroke="none" font-family="Arial" font-size="13px" font-style="normal" font-weight="normal" text-decoration="undefined" x="453" y="333.5" text-anchor="start" dominant-baseline="central" transform="matrix(1 0 0 1 -30 -169)">-rebuild_tree(root)</text></g></g><g><g><path fill="none" stroke="none"/><text fill="#000000" stroke="none" font-family="Arial" font-size="13px" font-style="normal" font-weight="normal" text-decoration="undefined" x="453" y="348.5" text-anchor="start" dominant-baseline="central" transform="matrix(1 0 0 1 -30 -169)">-show()</text></g></g><g><path fill="none" stroke="#000000" paint-order="fill stroke markers" d=" M 810 169 L 753 169" stroke-miterlimit="10" stroke-dasharray="3"/></g><g><path fill="none" stroke="#000000" paint-order="fill stroke markers" d=" M 763.1626748576241 164.790482243984 L 753 169 L 763.1626748576241 173.209517756016" stroke-miterlimit="10" stroke-dasharray=""/></g><g><rect fill="#ffffff" stroke="none" x="796" y="321" width="28.5517578125" height="13" transform="matrix(1 0 0 1 -30 -169)"/></g><g><g><path fill="none" stroke="none"/><text fill="#000000" stroke="none" font-family="Arial" font-size="13px" font-style="normal" font-weight="normal" text-decoration="undefined" x="810.27587890625" y="327.5" text-anchor="middle" dominant-baseline="central" transform="matrix(1 0 0 1 -30 -169)">+use</text></g></g><g><path fill="none" stroke="#000000" paint-order="fill stroke markers" d=" M 242 191 L 242 391" stroke-miterlimit="10" stroke-dasharray="3"/></g><g><path fill="none" stroke="#000000" paint-order="fill stroke markers" d=" M 237.790482243984 380.8373251423759 L 242 391 L 246.209517756016 380.8373251423759" stroke-miterlimit="10" stroke-dasharray=""/></g><g><rect fill="#ffffff" stroke="none" x="232" y="452" width="28.5517578125" height="13" transform="matrix(1 0 0 1 -30 -169)"/></g><g><g><path fill="none" stroke="none"/><text fill="#000000" stroke="none" font-family="Arial" font-size="13px" font-style="normal" font-weight="normal" text-decoration="undefined" x="246.27587890625" y="458.5" text-anchor="middle" dominant-baseline="central" transform="matrix(1 0 0 1 -30 -169)">use</text></g></g><g><path fill="none" stroke="#000000" paint-order="fill stroke markers" d=" M 283 191 L 283 336 L 353 336" stroke-miterlimit="10" stroke-dasharray="3"/></g><g><path fill="none" stroke="#000000" paint-order="fill stroke markers" d=" M 342.83732514237585 340.209517756016 L 353 336 L 342.83732514237585 331.790482243984" stroke-miterlimit="10" stroke-dasharray=""/></g><g><rect fill="#ffffff" stroke="none" x="321" y="416" width="28.669921875" height="13" transform="matrix(1 0 0 1 -30 -169)"/></g><g><g><path fill="none" stroke="none"/><text fill="#000000" stroke="none" font-family="Arial" font-size="13px" font-style="normal" font-weight="normal" text-decoration="undefined" x="335.3349609375" y="422.5" text-anchor="middle" dominant-baseline="central" transform="matrix(1 0 0 1 -30 -169)">use</text></g></g><g><path fill="none" stroke="#000000" paint-order="fill stroke markers" d=" M 342 143 L 418 143" stroke-miterlimit="10" stroke-dasharray="3"/></g><g><path fill="none" stroke="#000000" paint-order="fill stroke markers" d=" M 407.83732514237585 147.209517756016 L 418 143 L 407.83732514237585 138.790482243984" stroke-miterlimit="10" stroke-dasharray=""/></g><g><rect fill="#ffffff" stroke="none" x="384" y="290" width="43.72265625" height="13" transform="matrix(1 0 0 1 -30 -169)"/></g><g><g><path fill="none" stroke="none"/><text fill="#000000" stroke="none" font-family="Arial" font-size="13px" font-style="normal" font-weight="normal" text-decoration="undefined" x="405.861328125" y="296.5" text-anchor="middle" dominant-baseline="central" transform="matrix(1 0 0 1 -30 -169)">create</text></g></g><g><rect fill="#ffffff" stroke="none" x="40" y="239" width="120" height="145" transform="matrix(1 0 0 1 -30 -169)"/></g><g><path fill="none" stroke="#000000" paint-order="fill stroke markers" d=" M 10 70 L 130 70 L 130 215 L 10 215 L 10 70 Z Z" stroke-miterlimit="10" stroke-dasharray=""/></g><g><rect fill="#ffffff" stroke="none" x="40" y="224" width="48" height="15" transform="matrix(1 0 0 1 -30 -169)"/></g><g><path fill="none" stroke="#000000" paint-order="fill stroke markers" d=" M 10 55 L 58 55 L 58 70 L 10 70 L 10 55 Z Z" stroke-miterlimit="10" stroke-dasharray=""/></g><g><rect fill="#ffffff" stroke="none" x="40" y="238" width="120" height="146" transform="matrix(1 0 0 1 -30 -169)"/></g><g><path fill="none" stroke="#000000" paint-order="fill stroke markers" d=" M 10 69 L 130 69 L 130 215 L 10 215 L 10 69 Z Z" stroke-miterlimit="10" stroke-dasharray=""/></g><g><g><path fill="none" stroke="none"/><text fill="#000000" stroke="none" font-family="Arial" font-size="13px" font-style="normal" font-weight="bold" text-decoration="undefined" x="100.5" y="252.5" text-anchor="middle" dominant-baseline="central" transform="matrix(1 0 0 1 -30 -169)">&lt;mode&gt; interface</text></g></g><g><rect fill="#ffffff" stroke="none" x="56" y="280" width="90.57080078125" height="71" transform="matrix(1 0 0 1 -30 -169)"/></g><g><path fill="none" stroke="#000000" paint-order="fill stroke markers" d=" M 26 111 L 116.57080078125 111 L 116.57080078125 182 L 26 182 L 26 111 Z Z" stroke-miterlimit="10" stroke-dasharray=""/></g><g><path fill="none" stroke="#000000" paint-order="fill stroke markers" d=" M 26 136 L 117.57080078125 136" stroke-miterlimit="10" stroke-dasharray=""/></g><g><path fill="none" stroke="#000000" paint-order="fill stroke markers" d=" M 26 159 L 117.57080078125 159" stroke-miterlimit="10" stroke-dasharray=""/></g><g><g><path fill="none" stroke="none"/><text fill="#000000" stroke="none" font-family="Arial" font-size="13px" font-style="normal" font-weight="bold" text-decoration="undefined" x="101.785400390625" y="293.5" text-anchor="middle" dominant-baseline="central" transform="matrix(1 0 0 1 -30 -169)">fje</text></g></g><g><g><path fill="none" stroke="none"/><text fill="#000000" stroke="none" font-family="Arial" font-size="13px" font-style="normal" font-weight="normal" text-decoration="undefined" x="61" y="316.5" text-anchor="start" dominant-baseline="central" transform="matrix(1 0 0 1 -30 -169)">+parser</text></g></g><g><g><path fill="none" stroke="none"/><text fill="#000000" stroke="none" font-family="Arial" font-size="13px" font-style="normal" font-weight="normal" text-decoration="undefined" x="61" y="339.5" text-anchor="start" dominant-baseline="central" transform="matrix(1 0 0 1 -30 -169)">+main()</text></g></g><g><rect fill="#ffffff" stroke="none" x="632" y="239" width="368" height="305" transform="matrix(1 0 0 1 -30 -169)"/></g><g><path fill="none" stroke="#000000" paint-order="fill stroke markers" d=" M 602 70 L 970 70 L 970 375 L 602 375 L 602 70 Z Z" stroke-miterlimit="10" stroke-dasharray=""/></g><g><rect fill="#ffffff" stroke="none" x="632" y="224" width="147.20000000000005" height="15" transform="matrix(1 0 0 1 -30 -169)"/></g><g><path fill="none" stroke="#000000" paint-order="fill stroke markers" d=" M 602 55 L 749.2 55 L 749.2 70 L 602 70 L 602 55 Z Z" stroke-miterlimit="10" stroke-dasharray=""/></g><g><rect fill="#ffffff" stroke="none" x="632" y="238" width="368" height="306" transform="matrix(1 0 0 1 -30 -169)"/></g><g><path fill="none" stroke="#000000" paint-order="fill stroke markers" d=" M 602 69 L 970 69 L 970 375 L 602 375 L 602 69 Z Z" stroke-miterlimit="10" stroke-dasharray=""/></g><g><g><path fill="none" stroke="none"/><text fill="#000000" stroke="none" font-family="Arial" font-size="13px" font-style="normal" font-weight="bold" text-decoration="undefined" x="816.5" y="252.5" text-anchor="middle" dominant-baseline="central" transform="matrix(1 0 0 1 -30 -169)">&lt;mode&gt; tree</text></g></g><g><rect fill="#ffffff" stroke="none" x="640" y="280" width="142.6787109375" height="58" transform="matrix(1 0 0 1 -30 -169)"/></g><g><path fill="none" stroke="#000000" paint-order="fill stroke markers" d=" M 610 111 L 752.6787109375 111 L 752.6787109375 169 L 610 169 L 610 111 Z Z" stroke-miterlimit="10" stroke-dasharray=""/></g><g><path fill="none" stroke="#000000" paint-order="fill stroke markers" d=" M 610 136 L 753.6787109375 136" stroke-miterlimit="10" stroke-dasharray=""/></g><g><path fill="none" stroke="#000000" paint-order="fill stroke markers" d=" M 610 146 L 753.6787109375 146" stroke-miterlimit="10" stroke-dasharray=""/></g><g><g><path fill="none" stroke="none"/><text fill="#000000" stroke="none" font-family="Arial" font-size="13px" font-style="normal" font-weight="bold" text-decoration="undefined" x="711.83935546875" y="293.5" text-anchor="middle" dominant-baseline="central" transform="matrix(1 0 0 1 -30 -169)">JsonVisitor(template)</text></g></g><g><g><path fill="none" stroke="none"/><text fill="#000000" stroke="none" font-family="Arial" font-size="13px" font-style="italic" font-weight="normal" text-decoration="undefined" x="645" y="326.5" text-anchor="start" dominant-baseline="central" transform="matrix(1 0 0 1 -30 -169)">+visit(node)</text></g></g><g><rect fill="#ffffff" stroke="none" x="840" y="280" width="132.078125" height="58" transform="matrix(1 0 0 1 -30 -169)"/></g><g><path fill="none" stroke="#000000" paint-order="fill stroke markers" d=" M 810 111 L 942.078125 111 L 942.078125 169 L 810 169 L 810 111 Z Z" stroke-miterlimit="10" stroke-dasharray=""/></g><g><path fill="none" stroke="#000000" paint-order="fill stroke markers" d=" M 810 136 L 943.078125 136" stroke-miterlimit="10" stroke-dasharray=""/></g><g><path fill="none" stroke="#000000" paint-order="fill stroke markers" d=" M 810 146 L 943.078125 146" stroke-miterlimit="10" stroke-dasharray=""/></g><g><g><path fill="none" stroke="none"/><text fill="#000000" stroke="none" font-family="Arial" font-size="13px" font-style="normal" font-weight="bold" text-decoration="undefined" x="906.5390625" y="293.5" text-anchor="middle" dominant-baseline="central" transform="matrix(1 0 0 1 -30 -169)">JsonTree</text></g></g><g><g><path fill="none" stroke="none"/><text fill="#000000" stroke="none" font-family="Arial" font-size="13px" font-style="normal" font-weight="normal" text-decoration="undefined" x="845" y="326.5" text-anchor="start" dominant-baseline="central" transform="matrix(1 0 0 1 -30 -169)">+accept(visitor)</text></g></g><g><path fill="none" stroke="#000000" paint-order="fill stroke markers" d=" M 474 191 L 474 263 L 689 263 L 689 169" stroke-miterlimit="10" stroke-dasharray=""/></g><g><path fill="#FFFFFF" stroke="none" paint-order="stroke fill markers" d=" M 697.419035512032 189.3253497152483 L 689 169 L 680.580964487968 189.3253497152483"/></g><g><path fill="none" stroke="#000000" paint-order="fill stroke markers" d=" M 697.419035512032 189.3253497152483 L 689 169 L 680.580964487968 189.3253497152483 L 697.419035512032 189.3253497152483" stroke-miterlimit="10" stroke-dasharray=""/></g><g><path fill="none" stroke="#000000" paint-order="fill stroke markers" d=" M 858 271 L 858 169" stroke-miterlimit="10" stroke-dasharray=""/></g><g><path fill="#000000" stroke="none" paint-order="stroke fill markers" d=" M 862.209517756016 179.16267485762415 L 858 169 L 853.790482243984 179.16267485762415 L 858 191"/></g><g><path fill="none" stroke="#000000" paint-order="fill stroke markers" d=" M 862.209517756016 179.16267485762415 L 858 169 L 853.790482243984 179.16267485762415 L 858 191 L 862.209517756016 179.16267485762415" stroke-miterlimit="10" stroke-dasharray=""/></g><g><path fill="none" stroke="#000000" paint-order="fill stroke markers" d=" M 810 151 L 753 151" stroke-miterlimit="10" stroke-dasharray="3"/></g><g><path fill="none" stroke="#000000" paint-order="fill stroke markers" d=" M 763.1626748576241 146.790482243984 L 753 151 L 763.1626748576241 155.209517756016" stroke-miterlimit="10" stroke-dasharray=""/></g><g><rect fill="#ffffff" stroke="none" x="796" y="303" width="28.5517578125" height="13" transform="matrix(1 0 0 1 -30 -169)"/></g><g><g><path fill="none" stroke="none"/><text fill="#000000" stroke="none" font-family="Arial" font-size="13px" font-style="normal" font-weight="normal" text-decoration="undefined" x="810.27587890625" y="309.5" text-anchor="middle" dominant-baseline="central" transform="matrix(1 0 0 1 -30 -169)">use</text></g></g><g><path fill="none" stroke="#000000" paint-order="fill stroke markers" d=" M 794 271 L 794 255 L 730 255 L 730 307 L 762 307" stroke-miterlimit="10" stroke-dasharray=""/></g><g><path fill="#000000" stroke="none" paint-order="stroke fill markers" d=" M 751.8373251423759 311.209517756016 L 762 307 L 751.8373251423758 302.790482243984 L 740 307"/></g><g><path fill="none" stroke="#000000" paint-order="fill stroke markers" d=" M 751.8373251423759 311.209517756016 L 762 307 L 751.8373251423758 302.790482243984 L 740 307 L 751.8373251423759 311.209517756016" stroke-miterlimit="10" stroke-dasharray=""/></g><g><rect fill="#ffffff" stroke="none" x="792" y="440" width="197.9921875" height="88" transform="matrix(1 0 0 1 -30 -169)"/></g><g><path fill="none" stroke="#000000" paint-order="fill stroke markers" d=" M 762 271 L 959.9921875 271 L 959.9921875 359 L 762 359 L 762 271 Z Z" stroke-miterlimit="10" stroke-dasharray=""/></g><g><path fill="none" stroke="#000000" paint-order="fill stroke markers" d=" M 762 296 L 960.9921875 296" stroke-miterlimit="10" stroke-dasharray=""/></g><g><path fill="none" stroke="#000000" paint-order="fill stroke markers" d=" M 762 334 L 960.9921875 334" stroke-miterlimit="10" stroke-dasharray=""/></g><g><g><path fill="none" stroke="none"/><text fill="#000000" stroke="none" font-family="Arial" font-size="13px" font-style="normal" font-weight="bold" text-decoration="undefined" x="891.49609375" y="453.5" text-anchor="middle" dominant-baseline="central" transform="matrix(1 0 0 1 -30 -169)">JsonNode</text></g></g><g><g><path fill="none" stroke="none"/><text fill="#000000" stroke="none" font-family="Arial" font-size="13px" font-style="normal" font-weight="normal" text-decoration="undefined" x="797" y="476.5" text-anchor="start" dominant-baseline="central" transform="matrix(1 0 0 1 -30 -169)">+key, value, level, is_last, is_leaf</text></g></g><g><g><path fill="none" stroke="none"/><text fill="#000000" stroke="none" font-family="Arial" font-size="13px" font-style="normal" font-weight="normal" text-decoration="undefined" x="797" y="491.5" text-anchor="start" dominant-baseline="central" transform="matrix(1 0 0 1 -30 -169)">+children[]</text></g></g><g><g><path fill="none" stroke="none"/><text fill="#000000" stroke="none" font-family="Arial" font-size="13px" font-style="normal" font-weight="normal" text-decoration="undefined" x="797" y="514.5" text-anchor="start" dominant-baseline="central" transform="matrix(1 0 0 1 -30 -169)">+__iter__()</text></g></g><g><path fill="none" stroke="#000000" paint-order="fill stroke markers" d=" M 106 111 L 106 31 L 898 31 L 898 111" stroke-miterlimit="10" stroke-dasharray="3"/></g><g><path fill="none" stroke="#000000" paint-order="fill stroke markers" d=" M 893.790482243984 100.83732514237585 L 898 111 L 902.209517756016 100.83732514237585" stroke-miterlimit="10" stroke-dasharray=""/></g><g><rect fill="#ffffff" stroke="none" x="518" y="179" width="28.5517578125" height="13" transform="matrix(1 0 0 1 -30 -169)"/></g><g><g><path fill="none" stroke="none"/><text fill="#000000" stroke="none" font-family="Arial" font-size="13px" font-style="normal" font-weight="normal" text-decoration="undefined" x="532.27587890625" y="185.5" text-anchor="middle" dominant-baseline="central" transform="matrix(1 0 0 1 -30 -169)">use</text></g></g><g><path fill="none" stroke="#000000" paint-order="fill stroke markers" d=" M 117 135 L 226 135" stroke-miterlimit="10" stroke-dasharray="3"/></g><g><path fill="none" stroke="#000000" paint-order="fill stroke markers" d=" M 215.83732514237585 139.209517756016 L 226 135 L 215.83732514237585 130.790482243984" stroke-miterlimit="10" stroke-dasharray=""/></g><g><rect fill="#ffffff" stroke="none" x="168" y="282" width="28.5517578125" height="13" transform="matrix(1 0 0 1 -30 -169)"/></g><g><g><path fill="none" stroke="none"/><text fill="#000000" stroke="none" font-family="Arial" font-size="13px" font-style="normal" font-weight="normal" text-decoration="undefined" x="182.27587890625" y="288.5" text-anchor="middle" dominant-baseline="central" transform="matrix(1 0 0 1 -30 -169)">use</text></g></g></g></svg>